# This file uses centimeters as units for non-parametric coordinates.

mtllib cube.mtl
g default
v -0.500000 -0.500000 0.500000
v 0.500000 -0.500000 0.500000
v -0.500000 0.500000 0.500000
v 0.500000 0.500000 0.500000
v -0.500000 0.500000 -0.500000
v 0.500000 0.500000 -0.500000
v -0.500000 -0.500000 -0.500000
v 0.500000 -0.500000 -0.500000

vt 0.000000 0.000000
vt 1.000000 0.000000
vt 0.000000 1.000000
vt 1.000000 1.000000
vt 0.000000 0.000000
vt 1.000000 0.000000
vt 0.000000 1.000000
vt 1.000000 1.000000
vt 0.000000 0.000000
vt 1.000000 0.000000
vt 0.000000 1.000000
vt 1.000000 1.000000
vt 0.000000 0.000000
vt 1.000000 0.000000
vt 0.000000 1.000000
vt 1.000000 1.000000
vt 0.000000 0.000000
vt 1.000000 0.000000
vt 0.000000 1.000000
vt 1.000000 1.000000
vt 0.000000 0.000000
vt 1.000000 0.000000
vt 0.000000 1.000000
vt 1.000000 1.000000

# vt 0.500000 0.333333
# vt 0.750000 0.333333
# vt 0.500000 0.666666
# vt 0.750000 0.666666
# 
# vt 0.250000 1.000000
# vt 0.000000 1.000000
# vt 0.250000 0.666666
# vt 0.000000 0.666666
# 
# vt 0.250000 0.666666
# vt 0.000000 0.666666
# vt 0.250000 0.333333
# vt 0.000000 0.333333
# 
# vt 0.250000 0.333333
# vt 0.000000 0.333333
# vt 0.250000 0.000000
# vt 0.000000 0.000000
# 
# vt 0.750000 0.333333
# vt 1.000000 0.333333
# vt 0.750000 0.666666
# vt 1.000000 0.666666
# 
# vt 0.250000 0.333333
# vt 0.500000 0.333333
# vt 0.250000 0.666666
# vt 0.500000 0.666666

vn 0.000000 0.000000 1.000000
vn 0.000000 0.000000 1.000000
vn 0.000000 0.000000 1.000000
vn 0.000000 0.000000 1.000000
vn 0.000000 1.000000 0.000000
vn 0.000000 1.000000 0.000000
vn 0.000000 1.000000 0.000000
vn 0.000000 1.000000 0.000000
vn 0.000000 0.000000 -1.000000
vn 0.000000 0.000000 -1.000000
vn 0.000000 0.000000 -1.000000
vn 0.000000 0.000000 -1.000000
vn 0.000000 -1.000000 0.000000
vn 0.000000 -1.000000 0.000000
vn 0.000000 -1.000000 0.000000
vn 0.000000 -1.000000 0.000000
vn 1.000000 0.000000 0.000000
vn 1.000000 0.000000 0.000000
vn 1.000000 0.000000 0.000000
vn 1.000000 0.000000 0.000000
vn -1.000000 0.000000 0.000000
vn -1.000000 0.000000 0.000000
vn -1.000000 0.000000 0.000000
vn -1.000000 0.000000 0.000000
s off
g pCube1
usemtl initialShadingGroup
# f 1/1 2/2 4/3 3/4
# f 3/5 4/6 6/7 5/8
# f 5/9 6/10 8/11 7/12
# f 7/13 8/14 2/15 1/16
# f 2/17 8/18 6/19 4/20
# f 7/21 1/22 3/23 5/24

f 1/1/1 2/2/2 4/4/3 3/3/4
f 3/5/5 4/6/6 6/8/7 5/7/8
f 5/9/9 6/10/10 8/12/11 7/11/12
f 7/13/13 8/14/14 2/16/15 1/15/16
f 2/17/17 8/18/18 6/20/19 4/19/20
f 7/21/21 1/22/22 3/24/23 5/23/24
